<svg xmlns="http://www.w3.org/2000/svg" xmlns:xlink="http://www.w3.org/1999/xlink" width="250" viewBox="0 0 187.5 187.499992" height="250" preserveAspectRatio="xMidYMid meet"><path fill="#ffffff" d="M 2.976562 28.929688 C 2.976562 21.761719 8.789062 15.953125 15.953125 15.953125 L 171.652344 15.953125 C 178.820312 15.953125 184.628906 21.761719 184.628906 28.929688 C 184.628906 36.09375 178.820312 41.902344 171.652344 41.902344 L 15.953125 41.902344 C 8.789062 41.902344 2.976562 36.09375 2.976562 28.929688 Z M 2.976562 28.929688 " fill-opacity="1" fill-rule="evenodd"></path><path fill="#ffffff" d="M 2.976562 93.804688 C 2.976562 86.636719 8.789062 80.828125 15.953125 80.828125 L 171.652344 80.828125 C 178.820312 80.828125 184.628906 86.636719 184.628906 93.804688 C 184.628906 100.96875 178.820312 106.777344 171.652344 106.777344 L 15.953125 106.777344 C 8.789062 106.777344 2.976562 100.96875 2.976562 93.804688 Z M 2.976562 93.804688 " fill-opacity="1" fill-rule="evenodd"></path><path fill="#ffffff" d="M 2.976562 158.679688 C 2.976562 151.511719 8.789062 145.703125 15.953125 145.703125 L 93.804688 145.703125 C 100.96875 145.703125 106.777344 151.511719 106.777344 158.679688 C 106.777344 165.84375 100.96875 171.652344 93.804688 171.652344 L 15.953125 171.652344 C 8.789062 171.652344 2.976562 165.84375 2.976562 158.679688 Z M 2.976562 158.679688 " fill-opacity="1" fill-rule="evenodd"></path></svg>